<?xml version="1.0" encoding="utf-8"?>
<svg viewBox="0 0 511.999 511.999" style="enable-background:new 0 0 511.999 511.999;" xmlns="http://www.w3.org/2000/svg">
  <g>
    <g>
      <g>
        <path d="M 256.003 236.219 C 283.746 236.219 306.318 213.649 306.318 185.905 C 306.318 158.161 283.748 135.591 256.003 135.591 C 228.26 135.591 205.689 158.161 205.689 185.905 C 205.689 213.649 228.26 236.219 256.003 236.219 Z M 256.003 167.993 C 265.881 167.993 273.917 176.028 273.917 185.906 C 273.917 195.784 265.882 203.819 256.003 203.819 C 246.126 203.819 238.09 195.784 238.09 185.906 C 238.09 176.028 246.126 167.993 256.003 167.993 Z" style="fill: rgb(172, 137, 197);"/>
        <path d="M 256.003 239.612 C 207.084 239.612 167.284 279.412 167.284 328.331 C 167.284 337.278 174.537 344.531 183.484 344.531 L 328.522 344.531 C 337.469 344.531 344.722 337.278 344.722 328.331 C 344.722 279.41 304.923 239.612 256.003 239.612 Z M 202.058 312.129 C 209.033 288.946 230.578 272.011 256.003 272.011 C 281.428 272.011 302.972 288.947 309.948 312.129 L 202.058 312.129 Z" style="fill: rgb(172, 137, 197);"/>
        <path d="M 484.76 63.596 L 354.802 63.596 C 341.194 63.596 329.885 73.627 327.878 86.682 L 184.133 86.682 C 182.126 73.626 170.812 63.596 157.198 63.596 L 27.24 63.596 C 12.219 63.596 0 75.815 0 90.836 L 0 250.308 C 0 265.328 12.219 277.548 27.24 277.548 L 56.161 277.548 L 78.188 315.708 C 84.421 326.505 100.013 326.507 106.248 315.71 L 125.554 282.277 L 125.554 359.136 C 125.554 377.219 140.265 391.93 158.348 391.93 L 206.519 391.93 L 241.975 453.344 C 248.207 464.139 263.813 464.12 270.034 453.344 L 305.492 391.93 L 353.662 391.93 C 371.745 391.93 386.456 377.219 386.456 359.136 L 386.456 282.282 L 405.75 315.707 C 411.983 326.504 427.589 326.485 433.811 315.707 L 455.839 277.547 L 484.76 277.547 C 499.781 277.547 512 265.327 512 250.307 L 512 90.836 C 512 75.815 499.781 63.596 484.76 63.596 Z M 125.555 245.149 C 106.718 245.148 108.988 246.177 92.222 275.21 C 72.186 240.499 81.908 245.148 32.4 245.148 L 32.4 95.997 L 135.477 95.997 C 121.631 109.515 125.555 118.282 125.555 245.149 Z M 353.662 359.531 L 296.139 359.531 C 284.026 359.531 283.268 365.623 256.004 412.845 C 228.734 365.611 227.975 359.531 215.871 359.531 L 158.347 359.531 C 158.13 359.531 157.954 359.355 157.954 359.138 C 157.954 358.489 157.698 119.084 158.347 119.084 C 158.953 119.084 354.053 118.871 354.053 119.477 C 354.054 130.71 354.054 349.799 354.054 359.138 C 354.055 359.355 353.879 359.531 353.662 359.531 Z M 479.599 245.148 C 430.32 245.148 439.864 240.41 419.78 275.205 C 402.994 246.126 405.217 245.148 386.455 245.148 C 386.455 113.619 390.259 109.398 376.533 95.996 L 479.599 95.996 L 479.599 245.148 Z" style="fill: rgb(172, 137, 197);"/>
        <path stroke-linecap="round" stroke-linejoin="round" stroke-width="2" d="M 451.163 153.878 L 459.497 145.544 M 459.497 145.544 L 467.831 137.21 M 459.497 145.544 L 451.163 137.21 M 459.497 145.544 L 467.831 153.878 M 405.331 133.044 C 400.728 133.044 396.997 136.773 396.997 141.378 L 396.997 145.544 C 396.997 180.06 424.981 208.044 459.497 208.044 L 463.663 208.044 C 468.266 208.044 471.997 204.31 471.997 199.71 L 471.997 186.044 C 471.995 184.248 470.847 182.66 469.147 182.094 L 450.426 175.853 C 448.459 175.198 446.311 176.09 445.384 177.944 L 440.676 187.348 C 430.474 182.735 422.301 174.565 417.693 164.36 L 427.097 159.66 C 428.951 158.731 429.843 156.585 429.188 154.619 L 422.947 135.89 C 422.379 134.185 420.786 133.04 418.992 133.044 L 405.331 133.044 Z" style="fill: rgb(107, 22, 126);"/>
      </g>
    </g>
  </g>
  <g/>
  <g/>
  <g/>
  <g/>
  <g/>
  <g/>
  <g/>
  <g/>
  <g/>
  <g/>
  <g/>
  <g/>
  <g/>
  <g/>
  <g/>
  <path d="M 40.48 142.455 C 40.48 136.563 44.958 131.789 50.48 131.789 L 85.48 131.789 C 91.003 131.789 95.48 136.563 95.48 142.455 L 95.48 163.789 C 95.48 169.677 91.003 174.455 85.48 174.455 L 75.48 174.455 L 60.48 190.455 L 60.48 174.455 L 50.48 174.455 C 44.958 174.455 40.48 169.677 40.48 163.789 L 40.48 142.455 Z" style="fill: rgb(172, 137, 197);"/>
  <path d="M 104.48 148.123 L 104.48 158.789 C 104.48 170.57 95.526 180.123 84.48 180.123 L 78.621 180.123 L 69.79 189.546 C 71.191 190.341 72.786 190.789 74.48 190.789 L 84.48 190.789 L 99.48 206.789 L 99.48 190.789 L 109.48 190.789 C 115.003 190.789 119.48 186.01 119.48 180.123 L 119.48 158.789 C 119.48 152.895 115.003 148.123 109.48 148.123 L 104.48 148.123 Z" style="fill: rgb(107, 22, 126);"/>
</svg>